<?xml version="1.0" encoding="UTF-8" ?>
<!DOCTYPE svg PUBLIC "-//W3C//DTD SVG 1.1//EN" "http://www.w3.org/Graphics/SVG/1.1/DTD/svg11.dtd">
<svg width="183pt" height="60pt" viewBox="0 0 183 60" version="1.1" xmlns="http://www.w3.org/2000/svg">
<g id="#ffffffff">
<path fill="#ffffff" opacity="1.00" d=" M 35.92 10.00 C 38.20 7.66 41.60 8.14 44.55 8.08 C 44.53 9.62 44.58 11.17 44.48 12.71 C 43.73 13.87 42.11 13.68 40.99 14.18 C 40.84 15.42 40.71 16.65 40.60 17.89 C 38.48 17.89 36.36 17.93 34.23 17.99 C 34.19 15.27 34.31 12.30 35.92 10.00 Z" />
<path fill="#ffffff" opacity="1.00" d=" M 59.51 8.09 C 62.21 8.18 65.27 7.70 67.51 9.61 C 71.07 13.96 69.13 19.89 69.83 24.99 C 70.60 25.11 72.13 25.33 72.89 25.45 C 72.89 27.14 72.89 28.83 72.90 30.52 C 72.12 30.65 70.56 30.91 69.78 31.03 C 69.34 35.50 70.42 40.20 68.75 44.48 C 67.05 47.93 63.00 48.19 59.64 47.89 C 60.35 46.56 61.25 45.36 62.04 44.10 C 65.27 39.25 60.97 32.35 65.30 28.00 C 61.65 24.30 64.12 18.76 63.04 14.20 C 61.96 13.64 60.34 13.84 59.58 12.74 C 59.47 11.19 59.52 9.64 59.51 8.09 Z" />
<path fill="#ffffff" opacity="1.00" d=" M 86.62 18.80 C 90.48 17.35 94.40 19.39 97.28 21.90 C 96.25 22.98 95.23 24.07 94.21 25.16 C 93.37 24.42 92.54 23.68 91.72 22.93 C 88.53 22.03 85.73 23.55 83.98 26.17 C 83.98 27.34 83.98 28.51 83.98 29.67 C 85.15 33.55 89.22 34.08 92.64 33.01 C 93.09 32.56 94.00 31.66 94.45 31.21 C 95.34 32.23 96.24 33.23 97.14 34.24 C 95.95 35.13 94.74 35.99 93.52 36.85 C 91.32 37.83 88.94 37.94 86.57 37.71 C 83.65 36.49 80.81 34.48 80.00 31.24 C 77.94 26.22 81.33 19.93 86.62 18.80 Z" />
<path fill="#ffffff" opacity="1.00" d=" M 105.61 18.80 C 107.93 17.87 110.39 18.66 112.63 19.42 C 118.28 21.84 119.87 30.13 115.67 34.55 C 113.29 37.52 109.15 38.08 105.57 37.74 C 102.50 36.27 99.52 33.90 98.55 30.50 C 97.37 25.60 100.54 19.84 105.61 18.80 M 102.94 30.70 C 104.58 32.80 106.97 34.21 109.69 34.16 C 111.45 32.49 113.85 30.82 113.40 28.03 C 113.72 24.67 110.39 21.72 107.08 22.62 C 103.28 23.04 102.54 27.59 102.94 30.70 Z" />
<path fill="#ffffff" opacity="1.00" d=" M 121.27 19.01 C 126.01 19.33 131.67 17.79 135.54 21.35 C 140.68 26.35 137.92 36.65 130.47 37.57 C 127.40 37.78 124.33 37.73 121.26 37.74 C 121.28 31.50 121.27 25.25 121.27 19.01 M 125.73 22.90 C 125.73 26.65 125.72 30.41 125.74 34.16 C 127.76 33.81 129.78 33.43 131.76 32.88 C 134.91 30.29 134.07 25.08 130.78 22.96 C 129.10 22.92 127.41 22.90 125.73 22.90 Z" />
<path fill="#ffffff" opacity="1.00" d=" M 141.44 19.00 C 145.96 19.00 150.48 19.00 155.00 19.00 C 155.00 20.30 155.00 21.60 155.00 22.91 C 151.97 22.91 148.93 22.90 145.90 22.91 C 145.91 23.75 145.91 25.43 145.91 26.27 C 148.61 26.27 151.30 26.27 154.00 26.26 C 154.00 27.51 154.00 28.75 154.00 30.00 C 151.30 30.00 148.60 30.00 145.91 30.00 C 145.90 31.33 145.90 32.67 145.91 34.00 C 149.18 34.01 152.45 33.98 155.72 34.03 C 155.57 35.31 155.38 36.58 154.97 37.80 C 150.66 37.69 146.35 37.69 142.04 37.80 C 140.66 31.69 141.82 25.25 141.44 19.00 Z" />
<path fill="#ffffff" opacity="1.00" d=" M 158.43 19.01 C 163.31 19.63 169.91 17.11 173.25 21.88 C 174.99 25.06 173.61 29.21 170.77 31.33 C 172.37 33.37 173.81 35.52 175.25 37.67 C 173.37 37.72 171.50 37.74 169.62 37.74 C 168.39 35.66 167.03 33.66 165.65 31.66 C 164.99 31.69 163.66 31.74 163.00 31.76 C 163.00 33.74 163.00 35.72 163.00 37.70 C 161.68 37.73 160.35 37.77 159.03 37.82 C 157.66 31.70 158.82 25.26 158.43 19.01 M 163.01 22.68 C 163.00 24.46 163.00 26.24 163.00 28.02 C 164.59 28.01 166.18 28.06 167.78 27.93 C 169.90 27.05 169.13 24.78 169.09 23.01 C 167.06 22.86 165.04 22.74 163.01 22.68 Z" />
<path fill="#ffffff" opacity="1.00" d=" M 38.50 20.59 C 42.58 20.95 46.78 22.96 48.36 26.98 C 53.20 26.47 57.84 29.03 59.83 33.49 C 60.97 36.07 60.97 38.94 59.83 41.52 C 58.69 43.38 57.51 45.39 55.53 46.48 C 50.65 48.87 45.11 47.62 39.90 47.90 C 37.41 48.32 35.43 46.39 34.36 44.37 C 34.12 40.44 34.36 36.50 34.26 32.57 C 35.12 30.00 37.19 28.58 39.92 28.86 C 40.05 32.87 40.03 36.88 39.95 40.89 C 42.74 43.34 46.70 41.94 50.05 42.28 C 52.22 42.68 53.66 41.05 55.06 39.71 C 55.07 38.27 55.05 36.83 55.01 35.39 C 54.22 34.59 53.44 33.77 52.67 32.95 C 50.23 32.45 47.30 33.50 45.24 31.79 C 43.55 29.67 42.33 27.07 39.67 25.98 C 39.10 25.99 37.94 25.99 37.37 25.99 C 34.71 26.99 32.71 29.01 31.53 31.58 C 29.32 32.93 26.70 32.59 24.27 33.07 C 21.82 34.43 21.52 37.32 20.76 39.72 C 20.14 40.10 19.52 40.47 18.89 40.85 C 18.20 40.50 16.81 39.79 16.12 39.43 C 14.82 32.77 21.14 26.33 27.78 27.04 C 29.77 22.97 34.17 20.98 38.50 20.59 Z" />
</g>
</svg>
